<?xml version="1.0" encoding="UTF-8"?>
<svg width="74px" height="64px" viewBox="0 0 74 64" version="1.1" xmlns="http://www.w3.org/2000/svg" xmlns:xlink="http://www.w3.org/1999/xlink">
    <!-- Generator: Sketch 49.3 (51167) - http://www.bohemiancoding.com/sketch -->
    <title>Logo</title>
    <desc>Created with Sketch.</desc>
    <defs>
        <polygon id="path-1" points="2.24543081e-05 0.106130045 42.9710564 0.106130045 42.9710564 48.9862816 2.24543081e-05 48.9862816"></polygon>
        <polygon id="path-3" points="0.038 0.0647053858 4.97240886 0.0647053858 4.97240886 5.6 0.038 5.6"></polygon>
        <polygon id="path-5" points="0 63 74 63 74 0 0 0"></polygon>
    </defs>
    <g id="Page-2" stroke="none" stroke-width="1" fill="none" fill-rule="evenodd">
        <g id="Logo">
            <path d="M74,0 C73.507554,1.76203752 73.0269302,3.49098514 72.541003,5.21838856 C71.9650278,7.26544048 71.3661817,9.30631562 70.8182705,11.3606473 C70.6767351,11.8912991 70.4318932,12.0368947 69.898677,12.0354608 C63.0126088,12.0161584 56.1264301,12.0206807 49.2402514,12.0192468 C49.0940755,12.0192468 48.94801,12.0192468 48.718747,12.0192468 C49.3356027,14.2024085 49.9395314,16.3399062 50.5540669,18.5144645 L68.7615322,18.5144645 C67.6249398,22.5297041 66.506578,26.4801977 65.3825813,30.4508762 L53.9437352,30.4508762 C54.5735181,32.6802535 55.1884955,34.8571282 55.812975,37.0675339 L63.5027346,37.0675339 C63.137571,38.3545107 62.7872128,39.5860067 62.4390644,40.8181645 C61.7212224,43.3584766 60.997414,45.8971343 60.2951509,48.4417481 C60.1869829,48.8335326 60.0367189,48.9963349 59.5942136,48.9945701 C55.2305916,48.9774737 50.8668591,48.9785767 46.503237,48.9999748 C45.9964275,49.0025117 45.8008634,48.8135683 45.6709292,48.3525156 C41.281232,32.7918768 36.8805964,17.234216 32.4812867,1.67622437 C32.3275976,1.1329984 32.1698204,0.590985731 32,0 L74,0 Z" id="Fill-1" fill="#FFFFFF"></path>
            <g id="Group-5">
                <mask id="mask-2" fill="white">
                    <use xlink:href="#path-1"></use>
                </mask>
                <g id="Clip-4"></g>
                <path d="M21.4441112,21.5780289 C19.4105368,28.6213944 17.3775238,35.6649796 15.3427144,42.7080155 C14.784388,44.6405491 14.216294,46.570446 13.6629076,48.5041881 C13.5793775,48.7959908 13.4839467,48.9872666 13.1125525,48.9862778 C8.82815822,48.9744123 4.54387624,48.9760603 0.259481984,48.9726545 C0.205142559,48.9726545 0.150915405,48.9528787 2.24543081e-05,48.9233249 C4.70251593,32.6558742 9.40119217,16.4013877 14.1073906,0.121192601 C15.4307352,0.121192601 16.7010877,0.121632063 17.9713279,0.121082735 C21.3764115,0.11976435 24.781495,0.128114126 28.186354,0.106141031 C28.7352496,0.102625336 28.9685499,0.289506502 29.1164115,0.806093946 C32.0523123,11.0550043 35.0035943,21.2998496 37.9583567,31.5437061 C39.6003279,37.2363854 41.2542,42.9258787 42.9020094,48.61702 C42.9269337,48.7028249 42.9411922,48.7918159 42.9710564,48.92728 L29.4669232,48.92728 C26.8339311,39.8226186 24.1949885,30.6975222 21.556046,21.5723159 C21.5187718,21.5741836 21.4813854,21.5760513 21.4441112,21.5780289" id="Fill-3" fill="#FFFFFF" mask="url(#mask-2)"></path>
            </g>
            <path d="M74,56.9589593 L72.8388829,56.9589593 L72.8388829,53.5056849 C72.7969095,53.4967661 72.7549362,53.4878473 72.7129628,53.4789285 C72.3781622,54.6291351 72.0433615,55.7792356 71.7041772,56.9448378 C71.6390802,56.9588531 71.5705858,56.9845477 71.501105,56.9872021 C70.3363714,57.0300973 70.341303,57.0281861 70.0387222,55.9177955 C69.8125263,55.0879224 69.5715356,54.2618717 69.2451734,53.4481374 L69.2451734,56.939529 L68,56.939529 L68,52.0140156 C68.5720652,52.0140156 69.1491717,51.9848171 69.7190451,52.0351446 C69.8560339,52.0472487 70.0276535,52.305363 70.0825586,52.4800229 C70.4054138,53.5080207 70.6985698,54.5448312 71.0433433,55.7206264 C71.2208807,55.1315609 71.3671848,54.6620497 71.5034065,54.1898842 C71.6698752,53.6126043 71.8373304,53.0353243 71.9863742,52.4536912 C72.0705401,52.1258191 72.2544339,51.9855603 72.6079746,52.0011682 C73.060476,52.0210232 73.5144021,52.0060523 74,52.0060523 L74,56.9589593 Z" id="Fill-6" fill="#FFFFFF"></path>
            <path d="M35.3163289,60.0753362 C35.913681,60.0753362 36.4843655,60.0905785 37.0537952,60.0693906 C37.3802891,60.0573913 37.5547259,59.839134 37.5583861,59.5002351 C37.562151,59.1670657 37.4080023,58.9237288 37.0781619,58.9089188 C36.4931501,58.8828663 35.9062559,58.901676 35.3163289,58.901676 L35.3163289,60.0753362 Z M35.2772165,60.9776611 L35.2772165,62.9053306 L34,62.9053306 L34,58.0178365 C35.2412416,58.0178365 36.4837381,57.9647586 37.7187049,58.041727 C38.2781996,58.0766438 38.7666855,58.4414871 38.8948987,59.1007994 C39.0088892,59.6880078 38.8348706,60.0416085 38.2075045,60.5515242 C39.065989,61.1430567 38.5508356,62.1513213 39,62.976894 C38.5259459,62.976894 38.1537512,63.0440251 37.8249566,62.9494361 C37.6533434,62.8999255 37.4706448,62.5774582 37.4433499,62.358336 C37.2885738,61.1151665 37.3040514,61.113653 36.0834118,61.0379818 C35.8429859,61.0231719 35.6028738,61.0022002 35.2772165,60.9776611 Z" id="Fill-8" fill="#FFFFFF"></path>
            <path d="M50.2217589,59.7352256 L50.2217589,62.90227 L49,62.90227 L49,58.0536045 C49.7771018,57.9480889 50.4517724,57.9164237 50.9360906,58.7631781 C51.4265354,59.6203473 52.0917475,60.3817845 52.7722221,61.3107 L52.7722221,58.0596009 L54,58.0596009 C54,59.6692653 54,61.2740905 53.9993551,62.8789156 C53.0422193,63.1253991 52.7375051,63.0284048 52.1899869,62.2808539 C51.5645435,61.4273668 50.946194,60.5689352 50.324835,59.7126076 C50.2905479,59.7200768 50.2560459,59.7276512 50.2217589,59.7352256" id="Fill-10" fill="#FFFFFF"></path>
            <path d="M14.2249376,56.9546645 L13,56.9546645 L13,52.0778713 C13.877076,51.8833574 14.5243955,52.0218733 15.0006884,52.853391 C15.471388,53.6748713 16.1036486,54.4070718 16.7488168,55.2936366 L16.7488168,52.0827315 L18,52.0827315 L18,56.9365972 C17.2358661,57.076064 16.609414,57.0402464 16.1419413,56.2574364 C15.6045521,55.3577702 14.9257164,54.5395652 14.2249376,53.5707995 L14.2249376,56.9546645 Z" id="Fill-12" fill="#FFFFFF"></path>
            <path d="M43.9355086,62.887028 C45.0696181,62.8818404 45.660175,62.1950338 45.6569555,60.8847568 C45.6543799,59.8648616 44.9486736,59.1263002 43.9811176,59.1307639 C43.0137763,59.1351069 42.3801859,59.8824751 42.3786835,61.0203568 C42.3771811,62.12651 43.0148494,62.8911297 43.9355086,62.887028 M43.8702608,58 C44.2803131,58.0580281 44.5673819,58.0714192 44.8427533,58.1419939 C46.3849834,58.5368504 47.0267297,59.4517884 46.9991497,61.1905806 C46.9761842,62.6404387 46.1849474,63.629088 44.7421987,63.9127139 C43.6911513,64.1192505 42.6688645,63.9895619 41.8080873,63.1945407 C40.4484008,61.9387933 40.8814185,59.0103646 42.53193,58.338638 C42.9937083,58.1505594 43.4969104,58.0912043 43.8702608,58" id="Fill-14" fill="#FFFFFF"></path>
            <g id="Group-18" transform="translate(68.000000, 58.000000)">
                <mask id="mask-4" fill="white">
                    <use xlink:href="#path-3"></use>
                </mask>
                <g id="Clip-17"></g>
                <path d="M4.76779167,1.7664416 C4.158,1.7521056 3.59622917,1.9425056 3.17675,1.2897696 C2.958625,0.9505216 1.90508333,0.9765056 1.6101875,1.2554976 C1.4914375,1.3676096 1.34570833,1.5986656 1.38247917,1.7118976 C1.4320625,1.8642176 1.6314375,2.0197856 1.79164583,2.0611136 C2.514875,2.2479296 3.25425,2.3646336 3.9739375,2.5643296 C4.73091667,2.7744416 5.07883333,3.3798016 4.9439375,4.1599936 C4.85164583,4.6938976 4.56320833,5.0781696 4.09102083,5.2732736 C3.00820833,5.7201536 1.91997917,5.7117536 0.85175,5.2288096 C0.269875,4.9658336 0.0519583333,4.5434816 0.038,3.7685536 C0.346958333,3.7685536 0.656958333,3.7506336 0.963520833,3.7779616 C1.07529167,3.7879296 1.21341667,3.8784256 1.28039583,3.9782176 C1.69258333,4.5920896 2.7326875,4.8449856 3.31779167,4.4312576 C3.46352083,4.3282176 3.66310417,4.0976096 3.63602083,3.9792256 C3.59685417,3.8080896 3.39414583,3.6094016 3.224875,3.5559776 C2.5458125,3.3414976 1.84685417,3.2004896 1.16633333,2.9906016 C0.383833333,2.7492416 0.092375,2.3781856 0.0764375,1.7046176 C0.0612291667,1.0667776 0.483208333,0.4518976 1.16477083,0.2415616 C2.0714375,-0.0381024 2.98872917,0.0205856 3.86977083,0.3703616 C4.4176875,0.5878656 4.697375,1.0681216 4.76779167,1.7664416" id="Fill-16" fill="#FFFFFF" mask="url(#mask-4)"></path>
            </g>
            <polygon id="Fill-19" fill="#FFFFFF" points="15.4705197 58.9357056 15.4705197 59.9138246 18.5919104 59.9138246 18.5919104 60.8485514 15.4963674 60.8485514 15.4963674 62.1137768 19 62.1137768 19 63 14 63 14 58 18.8179024 58 18.8179024 58.9357056"></polygon>
            <polygon id="Fill-21" fill="#FFFFFF" points="36 52 37.2672946 52 37.2672946 53.815248 39.6252393 53.815248 39.6252393 52.0118042 41 52.0118042 41 57 39.6613514 57 39.6613514 54.8529348 37.3373434 54.8529348 37.3373434 56.9949101 36 56.9949101"></polygon>
            <polygon id="Fill-23" fill="#FFFFFF" points="52.5511265 54.8674937 49.4225303 54.8674937 49.4225303 56.022117 53 56.022117 53 57 48 57 48 52 52.8395147 52 52.8395147 52.8580647 49.4213749 52.8580647 49.4213749 53.8483315 52.5511265 53.8483315"></polygon>
            <polygon id="Fill-25" fill="#FFFFFF" points="5.56851561 59.9145271 5.56851561 60.8375041 2.40679845 60.8375041 2.40679845 62.0877478 6 62.0877478 6 63 1 63 1 58 5.82969241 58 5.82969241 58.9298018 2.40933863 58.9298018 2.40933863 59.9145271"></polygon>
            <path d="M3.69461827,55.0482635 C3.45790934,54.4596194 3.23839582,53.9134657 2.97687327,53.263353 C2.70936497,53.9363451 2.49376939,54.478914 2.26739947,55.0482635 L3.69461827,55.0482635 Z M6,56.9814156 C5.53028242,56.9814156 5.12542852,57.036031 4.74995919,56.958009 C4.56690428,56.919947 4.36273603,56.6569919 4.30070196,56.4571924 C4.17228057,56.0428325 3.93295968,55.904818 3.51058388,55.9521584 C3.26027099,55.9802041 3.00255754,55.9767247 2.75093867,55.9557432 C2.19328508,55.909668 1.76982097,56.0196368 1.57751537,56.6195624 C1.52669097,56.7781368 1.24318442,56.9291198 1.04347826,56.9660221 C0.731022474,57.0238005 0.398759319,56.9814156 0,56.9814156 C0.117538227,56.6670082 0.202971105,56.3889759 0.323012461,56.1257045 C0.877727594,54.9086674 1.4543179,53.7008032 1.99542907,52.4780726 C2.15029657,52.128239 2.37938728,52.0633964 2.74212331,52.0190082 C3.55792567,51.9188449 3.96724166,52.2115327 4.25042172,52.9684511 C4.69282255,54.1509055 5.27768406,55.2831728 5.79855254,56.4382141 C5.86809599,56.5923602 5.91685259,56.7552574 6,56.9814156 Z" id="Fill-27" fill="#FFFFFF"></path>
            <path d="M26.9756336,53.2576514 C26.6998803,53.9217444 26.475688,54.4615453 26.2363755,55.0376158 L27.6740999,55.0376158 C27.4484934,54.4624998 27.2383335,53.927047 26.9756336,53.2576514 M30,56.9813233 C29.5225715,56.9813233 29.1224845,57.0248043 28.7411074,56.9614917 C28.572392,56.9333882 28.353965,56.7105745 28.3098009,56.5388775 C28.1804634,56.0371489 27.8866529,55.8802991 27.3935603,55.9603678 C27.2344175,55.9862443 27.0655934,55.9866685 26.905254,55.9673672 C26.2512781,55.888253 25.6903078,55.9304614 25.5028826,56.715771 C25.4741651,56.835821 25.2055912,56.9553408 25.034374,56.9777176 C24.7153269,57.0195018 24.3862722,56.9897014 24,56.9897014 C24.0512346,56.825534 24.0781029,56.6956212 24.1311868,56.5768438 C24.737844,55.2185392 25.3687588,53.8699914 25.9478951,52.5007635 C26.1708909,51.9737948 26.5754378,52.0059283 27.0150114,52.0007318 C27.4452301,51.9956413 27.8125748,52.0033831 28.0217557,52.4995969 C28.6453824,53.9791181 29.3155662,55.4399743 30,56.9813233" id="Fill-29" fill="#FFFFFF"></path>
            <path d="M25.9927775,61.2110645 C25.7844906,62.6829925 24.1067794,63.1208881 22.5095638,62.9727644 C20.9067566,62.8239326 19.9352171,61.7891919 20.0033646,60.3539912 C20.0724441,58.9028045 21.2551828,58.0158839 23.1428118,58.0002014 C24.766704,57.9866437 25.9062243,58.6584612 26,59.7158657 C25.3038465,59.7547178 24.6199246,59.9182204 24.1086432,59.2481228 C23.7803701,58.8178156 23.1976793,58.8564653 22.6703221,58.9868829 C22.1287529,59.1208417 21.6886478,59.415976 21.644614,59.9106321 C21.6008132,60.4024552 21.6280722,60.9313091 21.7959366,61.3972308 C22.0567611,62.1214583 23.6523459,62.3857335 24.1423093,61.7408291 C24.6539402,61.067595 25.2800822,61.2070174 25.9927775,61.2110645" id="Fill-31" fill="#FFFFFF"></path>
            <path d="M66,59.7459714 C65.6410145,59.7459714 65.3250793,59.7802953 65.0252442,59.7344962 C64.8097596,59.701594 64.5600915,59.6030905 64.422424,59.4622406 C63.9381378,58.9669811 63.3392842,58.7821601 62.6601635,58.9762222 C61.9323925,59.1841966 61.567107,59.6161904 61.5393402,60.3016531 C61.4841565,61.6603924 62.4683624,62.3989657 63.7666367,61.9668704 C63.9258877,61.9139628 64.0872386,61.8340429 64.208456,61.731579 C64.9072935,61.139847 64.988844,61.1123269 65.9430663,61.2498257 C65.8515991,62.3533698 64.6643921,63.0361921 62.9028316,62.9985171 C61.0778041,62.9596234 60.0217312,62.0541019 60.0002644,60.5097291 C59.9805476,59.0870133 61.065204,58.0891827 62.7183805,58.0090598 C64.6366252,57.91604 65.8567325,58.5424005 66,59.7459714" id="Fill-33" fill="#FFFFFF"></path>
            <polygon id="Fill-35" fill="#FFFFFF" points="30.1657116 63 28.837937 63 28.837937 58.9557614 27 58.9557614 27 58 32 58 32 58.9274089 30.1657116 58.9274089"></polygon>
            <polygon id="Fill-37" fill="#FFFFFF" points="7 58 8.44619892 58 8.44619892 62.0222998 12 62.0222998 12 63 7 63"></polygon>
            <mask id="mask-6" fill="white">
                <use xlink:href="#path-5"></use>
            </mask>
            <g id="Clip-40"></g>
            <polygon id="Fill-39" fill="#FFFFFF" mask="url(#mask-6)" points="57 63 58 63 58 58 57 58"></polygon>
            <path d="M59.9999535,52 C59.9999535,53.6097429 60.0002738,55.1617663 59.9992328,56.7136812 C59.9992328,56.8002604 59.9888225,56.8868395 59.9816153,57 L59,57 L59,52 L59.9999535,52 Z" id="Fill-41" fill="#FFFFFF" mask="url(#mask-6)"></path>
        </g>
    </g>
</svg>