<?xml version="1.0" encoding="UTF-8"?>
<svg width="12px" height="12px" viewBox="0 0 12 12" version="1.1" xmlns="http://www.w3.org/2000/svg" xmlns:xlink="http://www.w3.org/1999/xlink">
    <!-- Generator: Sketch 50.2 (55047) - http://www.bohemiancoding.com/sketch -->
    <title>plus</title>
    <desc>Created with Sketch.</desc>
    <defs></defs>
    <g id="Page-1" stroke="none" stroke-width="1" fill="none" fill-rule="evenodd">
        <g id="Gundam-Site" transform="translate(-1061.000000, -2000.000000)" fill="#000000">
            <g id="Set-2" transform="translate(-16.000000, 1799.000000)">
                <g id="Component" transform="translate(573.000000, 193.000000)">
                    <g id="not-active" transform="translate(494.000000, 0.000000)">
                        <path d="M20.5624748,12.9062645 C20.7825265,12.9062645 20.9729557,12.9866681 21.1337625,13.1474749 C21.2945693,13.3082817 21.3749729,13.4987109 21.3749729,13.7187626 L21.3749729,14.5312607 C21.3749729,14.7513123 21.2945693,14.9417416 21.1337625,15.1025484 C20.9729557,15.2633551 20.7825265,15.3437587 20.5624748,15.3437587 L16.9062335,15.3437587 L16.9062335,19 C16.9062335,19.2200517 16.82583,19.4104809 16.6650232,19.5712877 C16.5042164,19.7320945 16.3137872,19.8124981 16.0937355,19.8124981 L15.2812374,19.8124981 C15.0611857,19.8124981 14.8707565,19.7320945 14.7099497,19.5712877 C14.5491429,19.4104809 14.4687393,19.2200517 14.4687393,19 L14.4687393,15.3437587 L10.8124981,15.3437587 C10.5924464,15.3437587 10.4020171,15.2633551 10.2412104,15.1025484 C10.0804036,14.9417416 10,14.7513123 10,14.5312607 L10,13.7187626 C10,13.4987109 10.0804036,13.3082817 10.2412104,13.1474749 C10.4020171,12.9866681 10.5924464,12.9062645 10.8124981,12.9062645 L14.4687393,12.9062645 L14.4687393,9.25002325 C14.4687393,9.02997156 14.5491429,8.83954232 14.7099497,8.67873555 C14.8707565,8.51792877 15.0611857,8.43752518 15.2812374,8.43752518 L16.0937355,8.43752518 C16.3137872,8.43752518 16.5042164,8.51792877 16.6650232,8.67873555 C16.82583,8.83954232 16.9062335,9.02997156 16.9062335,9.25002325 L16.9062335,12.9062645 L20.5624748,12.9062645 Z" id="plus"></path>
                    </g>
                </g>
            </g>
        </g>
    </g>
</svg>